<svg width="46" height="46" viewBox="0 0 46 46" fill="none" xmlns="http://www.w3.org/2000/svg">
<path d="M0.657709 11.7213C1.01259 12.0144 1.48401 12.1688 1.99863 12.1688C2.16985 12.1687 2.34599 12.1517 2.52402 12.1169C3.75819 11.8752 4.72494 10.863 4.72494 9.81256V5.15946L10.016 4.17476V5.49466C9.67299 5.40608 9.29129 5.39656 8.89948 5.47301C8.8994 5.47301 8.8992 5.47301 8.89913 5.47311C7.66496 5.71478 6.69818 6.72696 6.69818 7.77733C6.69818 8.27551 6.90975 8.72446 7.29385 9.04151C7.64855 9.33431 8.11925 9.48841 8.63253 9.48841C8.80347 9.48841 8.97907 9.47141 9.15667 9.43656C10.3924 9.19523 11.3606 8.18306 11.3606 7.13216V1.58439C11.3606 1.56049 11.3592 1.53687 11.3568 1.5136C11.3381 1.20498 11.2001 0.921796 10.9689 0.728631C10.7171 0.518396 10.3799 0.433314 10.0426 0.495486L4.45406 1.53785C3.85202 1.64854 3.38035 2.2115 3.38035 2.81938V8.17478C3.03775 8.08638 2.65687 8.07696 2.26603 8.15351C1.03043 8.39501 0.0625 9.40701 0.0625 10.4577C0.0625 10.9556 0.273961 11.4044 0.657709 11.7213ZM8.8992 8.11388C8.53314 8.18576 8.27155 8.10273 8.14866 8.00121C8.07543 7.94076 8.0427 7.87176 8.0427 7.77723C8.0427 7.41688 8.51924 6.92048 9.15702 6.79551C9.52508 6.72373 9.78736 6.80693 9.91045 6.90853C9.98349 6.96883 10.0161 7.03781 10.0161 7.13216C10.016 7.49271 9.53853 7.98908 8.8992 8.11388ZM4.72487 2.85801L10.0159 1.87126V2.80421L4.72487 3.78888V2.85801ZM2.52367 9.47601C2.52374 9.47601 2.52392 9.47601 2.52402 9.47591C2.61992 9.45713 2.70867 9.44896 2.78979 9.44896C3.01767 9.44896 3.18394 9.51373 3.27456 9.58858C3.3478 9.64903 3.38052 9.71803 3.38052 9.81256C3.38052 10.1729 2.904 10.6694 2.26666 10.7943C1.89878 10.866 1.63595 10.7831 1.51279 10.6813C1.43973 10.621 1.4071 10.552 1.4071 10.4576C1.40701 10.0973 1.88452 9.60088 2.52367 9.47601Z" fill="#EF3131"/>
<path d="M45.8129 4.17088C45.6071 3.7126 45.0643 3.4507 44.6513 3.40183L34.9932 2.19854C34.659 2.15676 34.3315 2.25991 34.0713 2.48982C33.9695 2.57985 33.883 2.68675 33.8139 2.80418H30.5169C29.2775 2.80418 28.0887 3.06535 26.9839 3.5806C26.6472 3.73758 26.5013 4.13835 26.6579 4.47573C26.7719 4.72108 27.0144 4.86548 27.2678 4.86548C27.3628 4.86548 27.4593 4.84515 27.5511 4.8024C28.4768 4.3707 29.4748 4.15175 30.5171 4.15175H33.6276V6.55093H31.9252C30.1727 6.55093 28.7467 7.97998 28.7467 9.7366V12.6069H24.7779C24.5546 11.8384 23.96 11.2274 23.2026 10.9838C23.4164 9.40078 24.0613 7.90938 25.0518 6.73233C25.2913 6.44788 25.2554 6.02275 24.9715 5.78285C24.6877 5.54298 24.2638 5.579 24.0242 5.86335C22.839 7.27165 22.0795 9.06073 21.8524 10.9501C20.8244 11.2244 20.0647 12.1651 20.0647 13.2806C20.0647 14.3428 20.7553 15.2459 21.7103 15.5654L21.6708 17.3966C20.7363 17.7275 20.0647 18.6206 20.0647 19.6681C20.0647 20.6805 20.6906 21.5486 21.5746 21.9055L21.5333 23.8399C20.671 24.2066 20.0647 25.063 20.0647 26.0585C20.0647 27.0173 20.6271 27.8465 21.4389 28.234L21.402 29.9645C21.389 30.5748 21.0441 30.972 20.7102 31.0492C20.3108 31.1412 19.8676 30.7977 19.5249 30.129L17.1553 25.5082C17.0832 25.3675 16.322 23.9846 16.0026 23.4657C15.1917 22.1493 14.0893 20.5995 13.0328 19.8926C13.1726 19.5191 13.226 19.1147 13.1836 18.7046C13.1118 18.0093 12.7765 17.3859 12.2396 16.9491C11.7012 16.5108 11.023 16.3088 10.3303 16.381C9.63722 16.4529 9.01476 16.7896 8.57768 17.3291L0.580975 27.1978C0.580975 27.1978 0.580885 27.198 0.580795 27.198C-0.323315 28.3148 -0.152999 29.96 0.96015 30.8655C1.42162 31.241 1.97317 31.4252 2.53539 31.4252C3.08212 31.4252 3.63851 31.2505 4.13134 30.9088C5.5448 32.0413 6.90892 34.482 8.02317 36.4765C8.38771 37.1292 8.7322 37.7457 9.04918 38.264C10.2167 40.3017 11.2673 41.964 13.234 43.2665C14.9418 44.3972 16.7963 44.9932 18.7455 45.038C18.8214 45.0397 18.897 45.0405 18.9729 45.0405C20.6889 45.0405 22.4182 44.596 23.988 43.7497C27.7524 41.7202 30.0911 37.7925 30.0911 33.4992V33.1225H33.1359C33.7573 33.1225 34.2626 32.616 34.2626 31.9933V13.7361C34.2626 13.1134 33.7573 12.6069 33.1359 12.6069H30.0911V9.7366C30.0911 8.72318 30.9137 7.8985 31.9249 7.8985H33.8156C33.8805 8.00685 33.9603 8.10675 34.0554 8.19338C34.2826 8.40063 34.5647 8.5116 34.8608 8.5115C34.8984 8.5115 43.4395 7.68163 43.4395 7.68163C44.0289 7.6207 44.2836 7.1935 44.436 6.93808C44.4689 6.88308 45.7298 5.06583 45.7298 5.06583C45.9169 4.7962 45.9473 4.46998 45.8129 4.17088ZM21.409 13.2806C21.409 12.6939 21.8852 12.2166 22.4705 12.2166C23.0544 12.2166 23.5294 12.6939 23.5294 13.2806C23.5294 13.8657 23.0545 14.3419 22.4705 14.3419C21.8852 14.3419 21.409 13.8657 21.409 13.2806ZM21.409 19.6682C21.409 19.083 21.8852 18.6068 22.4705 18.6068C23.0544 18.6068 23.5294 19.0829 23.5294 19.6682C23.5294 20.2549 23.0545 20.7322 22.4705 20.7322C21.8852 20.7322 21.409 20.2549 21.409 19.6682ZM21.409 26.0585C21.409 25.4733 21.8852 24.9971 22.4705 24.9971C23.0544 24.9971 23.5294 25.4733 23.5294 26.0585C23.5294 26.6438 23.0545 27.1197 22.4705 27.1197C21.8852 27.1197 21.409 26.6438 21.409 26.0585ZM3.60211 29.6068C3.14523 30.0485 2.39789 30.2998 1.80761 29.8193C1.26986 29.382 1.18784 28.587 1.62474 28.0475L9.62126 18.1789C9.8319 17.9188 10.1328 17.7564 10.4685 17.7216C10.8047 17.6878 11.1322 17.7839 11.392 17.9955C11.6501 18.2055 11.8113 18.5065 11.846 18.8434C11.8808 19.1805 11.7845 19.5087 11.5749 19.7674L3.60211 29.6068ZM28.7467 33.4995C28.7467 37.2958 26.6791 40.7687 23.3512 42.563C20.2896 44.2135 16.8722 44.0602 13.9752 42.1422C12.2524 41.0012 11.2898 39.4692 10.2104 37.5847C10.2072 37.579 10.2038 37.5735 10.2004 37.5677C9.89601 37.0707 9.55618 36.4625 9.19637 35.8182C9.05958 35.5735 8.9191 35.3222 8.77533 35.0675L11.7764 31.4387C12.0133 31.1522 11.9737 30.7275 11.6878 30.49C11.4021 30.2525 10.9783 30.2923 10.7412 30.5788L8.05686 33.8242C7.16442 32.3272 6.16177 30.857 5.06666 29.9368L12.2996 21.0105C13.0053 21.4841 14.1997 22.9623 15.3942 25.0753L12.9543 27.938C12.7131 28.2208 12.7465 28.646 13.0287 28.888C13.1553 28.9963 13.3106 29.0495 13.465 29.0495C13.6549 29.0495 13.8435 28.9692 13.9765 28.8132L16.0755 26.3508L18.3289 30.745C18.8781 31.8168 19.6915 32.4142 20.5654 32.4142C20.7129 32.4142 20.8621 32.3972 21.0121 32.3625C22.0083 32.1325 22.7213 31.1582 22.7461 29.9935L22.779 28.447C23.7335 28.3238 24.514 27.6378 24.7776 26.7325H28.7467V33.4995ZM28.7467 25.3848H24.7776C24.5234 24.512 23.7889 23.8429 22.8812 23.6855L22.9164 22.0375C23.8081 21.8689 24.5271 21.2048 24.7778 20.342H28.7467V25.3848ZM28.7467 18.9945H24.7776C24.5362 18.1656 23.8617 17.5206 23.0171 17.3229L23.0538 15.6174C23.8814 15.4099 24.5398 14.7713 24.7776 13.9544H28.7467V18.9945ZM32.9182 31.775H30.0911V29.926H32.9182V31.775ZM32.9182 28.5785H30.0911V26.7323H32.9182V28.5785ZM32.9182 25.3848H30.0911V23.5385H32.9182V25.3848ZM32.9182 22.1909H30.0911V20.342H32.9182V22.1909ZM32.9182 13.9544V18.9945H30.0911V13.9544H32.9182ZM43.2193 6.34923L34.972 7.15243V3.55383L44.3312 4.71983C44.3312 4.71983 43.2392 6.31815 43.2193 6.34923Z" fill="white"/>
<path d="M18.1097 34.4588C17.3646 34.89 16.8317 35.5865 16.6091 36.4203C16.3865 37.2538 16.5009 38.124 16.9309 38.87C17.3611 39.618 18.056 40.1533 18.8878 40.3768C19.1656 40.4515 19.4475 40.4885 19.7277 40.4885C20.2858 40.4885 20.8368 40.3415 21.333 40.0543C21.3333 40.054 21.3336 40.054 21.3339 40.0538C22.8721 39.16 23.4002 37.1798 22.5114 35.64C21.6236 34.0993 19.6491 33.5695 18.1097 34.4588ZM20.66 38.8875C20.2261 39.1388 19.7202 39.2053 19.236 39.0753C18.7513 38.9448 18.3464 38.633 18.0953 38.1965C17.8446 37.7615 17.778 37.2543 17.9077 36.7685C18.0375 36.2828 18.348 35.877 18.7814 35.626C19.0766 35.4555 19.3991 35.3745 19.7177 35.3745C20.3674 35.3745 20.9999 35.7118 21.3472 36.3143C21.8652 37.2118 21.5569 38.366 20.66 38.8875Z" fill="white"/>
</svg>
